<svg xmlns="http://www.w3.org/2000/svg" xmlns:xlink="http://www.w3.org/1999/xlink" width="9" height="7" viewBox="0 0 9 7"><defs><path id="caz4a" d="M420.84 217.97l-.8-.8a.53.53 0 0 0-.39-.17.53.53 0 0 0-.4.17l-3.8 3.87-1.7-1.74a.53.53 0 0 0-.4-.17.53.53 0 0 0-.4.17l-.79.8a.55.55 0 0 0-.16.4c0 .16.06.29.16.4l2.1 2.13.8.8c.1.11.23.17.39.17.15 0 .29-.06.4-.17l.78-.8 4.2-4.26c.11-.11.17-.25.17-.4 0-.16-.06-.3-.16-.4z"/></defs><g><g transform="translate(-412 -217)"><use fill="#fff" xlink:href="#caz4a"/></g></g></svg>